<svg id="Layer_1" xmlns="http://www.w3.org/2000/svg" width="32" height="32" viewBox="0 0 32 32"><style>.st0{fill:#FFFFFF;} .st1{fill:#00ADEF;}</style><path class="st0" d="M29 31H3c-1.1 0-2-.9-2-2V3c0-1.1.9-2 2-2h26c1.1 0 2 .9 2 2v26c0 1.1-.9 2-2 2z"/><path class="st1" d="M29 32H3c-1.7 0-3-1.3-3-3V3c0-1.7 1.3-3 3-3h26c1.7 0 3 1.3 3 3v26c0 1.7-1.3 3-3 3zM3 2c-.6 0-1 .4-1 1v26c0 .6.4 1 1 1h26c.6 0 1-.4 1-1V3c0-.6-.4-1-1-1H3z"/><path class="st1" d="M25.7 9.1L12.1 21.8 8 17.7l-1.4 1.4 5.4 5.5 15.1-14z"/></svg>
