<?xml version="1.0" encoding="utf-8"?>
<!-- Generator: Adobe Illustrator 19.2.1, SVG Export Plug-In . SVG Version: 6.00 Build 0)  -->
<svg version="1.1" id="Layer_1" xmlns="http://www.w3.org/2000/svg" xmlns:xlink="http://www.w3.org/1999/xlink" x="0px" y="0px"
	 width="9.4px" height="9.6px" viewBox="0 0 9.4 9.6" style="enable-background:new 0 0 9.4 9.6;" xml:space="preserve">
<style type="text/css">
	.st0{fill:#FFFFFF;}
</style>
<path class="st0" d="M6.2,4.8l2.5-2.4c0.4-0.4,0.4-1,0-1.4c-0.4-0.4-1-0.4-1.4,0L4.8,3.3L2.4,0.8C2,0.4,1.4,0.4,1,0.8
	c-0.4,0.4-0.4,1,0,1.4l2.4,2.5L0.9,7.2c-0.4,0.4-0.4,1,0,1.4C1,8.8,1.3,8.9,1.6,8.9c0.3,0,0.5-0.1,0.7-0.3l2.5-2.4l2.4,2.5
	C7.4,8.9,7.7,9,8,9c0.3,0,0.5-0.1,0.7-0.3c0.4-0.4,0.4-1,0-1.4L6.2,4.8z"/>
</svg>
